# xmcd CD database file
#
# Track frame offsets:
#	150
#	25138
#	46119
#	71085
#
# Disc length: 1227 seconds
#
# Revision: 3
# Processed by: cddbd v1.5.2PL0 Copyright (c) Steve Scherf et al.
# Submitted via: CDex 1.70beta3
#
DISCID=2c04c904
DTITLE=槇原敬之 - Firefly ～僕は生きていく
DYEAR=2008
DGENRE=JPop
TTITLE0=Firefly ～僕は生きていく
TTITLE1=もう恋なんてしない '08
TTITLE2=Firefly ～僕は生きていく (Backing Track)
TTITLE3=もう恋なんてしない '08 (Backing Track)
EXTD=YEAR: 2008
EXTT0=
EXTT1=
EXTT2=
EXTT3=
PLAYORDER=
